# xmcd
#
# Track frame offsets:
#	150
#	16318
#	28740
#	41753
#	57392
#	71785
#	86374
#	107017
#	124850
#	140518
#	154407
#	166839
#
# Disc length: 2447 seconds
#
# Revision: 1
# Processed by: cddbd v1.5.2PL0 Copyright (c) Steve Scherf et al.
# Submitted via: audiograbber 1.83.01
#
DISCID=a3098d0c
DTITLE=Bengt Johansson - Genom vargarnas land
DYEAR=2011
DGENRE=Christian
TTITLE0=Novemberljus
TTITLE1=Kom tätt intill
TTITLE2=Genom vargarnas land
TTITLE3=Himmelens pil
TTITLE4=Stjärnan
TTITLE5=O, kärlek ren
TTITLE6=Den godhet följer mig
TTITLE7=Att våga stanna kvar
TTITLE8=När ljuset faller in
TTITLE9=Ge mig ett hjärta
TTITLE10=I dina händer
TTITLE11=Det finns ett namn
EXTD=
EXTT0=
EXTT1=
EXTT2=
EXTT3=
EXTT4=
EXTT5=
EXTT6=
EXTT7=
EXTT8=
EXTT9=
EXTT10=
EXTT11=
PLAYORDER=
